<svg width="333" height="112" viewBox="0 0 333 112" fill="none" xmlns="http://www.w3.org/2000/svg">
<g filter="url(#filter0_dd_1_3)">
<path d="M63.0488 16.0469C64.8418 13.8887 65.7383 11.8965 65.7383 10.0703C65.7383 8.70898 65.2568 7.72949 64.2939 7.13184C63.3643 6.50098 61.8369 6.18555 59.7119 6.18555C57.5869 6.18555 54.9971 6.7334 51.9424 7.8291C48.8877 8.8916 45.9492 10.3525 43.127 12.2119C40.3379 14.0713 37.7148 16.2627 35.2578 18.7861C32.834 21.2764 30.7256 23.9658 28.9326 26.8545C25.0811 33.0635 23.1553 39.123 23.1553 45.0332C23.1553 50.9766 25.2305 55.8906 29.3809 59.7754C34.1953 64.291 40.4873 66.5488 48.2568 66.5488C56.2256 66.5488 63.248 64.1582 69.3242 59.377C71.7812 57.418 73.9062 55.0605 75.6992 52.3047C77.1934 52.2051 77.9404 52.8193 77.9404 54.1475C77.9404 54.6787 77.7744 55.3262 77.4424 56.0898C74.7861 62.3652 70.5195 67.6777 64.6426 72.0273C55.9102 78.4688 46.1318 81.6895 35.3076 81.6895C28.6006 81.6895 22.6738 80.2451 17.5273 77.3564C11.9824 74.2686 8.11426 69.6367 5.92285 63.4609C4.79395 60.2734 4.22949 56.8535 4.22949 53.2012C4.22949 49.5488 4.71094 46.1123 5.67383 42.8916C6.63672 39.6709 7.98145 36.5332 9.70801 33.4785C11.4678 30.4238 13.543 27.502 15.9336 24.7129C18.3242 21.9238 20.9473 19.3174 23.8027 16.8936C26.6914 14.4365 29.7295 12.2285 32.917 10.2695C36.1377 8.27734 39.4414 6.58398 42.8281 5.18945C49.9004 2.20117 56.624 0.707031 62.999 0.707031C69.4736 0.707031 73.873 2.5332 76.1973 6.18555C77.0273 7.44727 77.4424 8.875 77.4424 10.4688C77.4424 12.0625 77.1934 13.4404 76.6953 14.6025C76.1973 15.7314 75.5664 16.7109 74.8027 17.541C73.209 19.2676 71.6982 20.1309 70.2705 20.1309C68.9424 20.1309 66.9336 19.1182 64.2441 17.0928C63.6465 16.6279 63.248 16.2793 63.0488 16.0469ZM79.1616 79C71.9234 79 68.3042 74.8662 68.3042 66.5986C68.3042 59.5928 72.1724 50.6279 79.9087 39.7041C86.7154 30.1084 94.0864 22.0732 102.022 15.5986C107.036 11.5146 110.738 9.47266 113.128 9.47266C114.888 9.47266 116.449 10.2861 117.81 11.9131C119.304 13.6396 120.051 15.416 120.051 17.2422C120.051 19.0352 119.653 20.6621 118.856 22.123C118.092 23.5508 117.046 24.9951 115.718 26.4561C114.423 27.917 112.879 29.3613 111.086 30.7891C109.327 32.2168 107.451 33.5615 105.459 34.8232C101.341 37.4795 97.3072 39.4717 93.356 40.7998C91.9282 43.9541 90.5171 47.457 89.1226 51.3086C95.8296 45.2656 103.649 41.0488 112.581 38.6582C115.436 37.8945 117.843 37.5127 119.802 37.5127C121.761 37.5127 122.94 37.8613 123.338 38.5586C123.737 39.2227 123.803 40.1191 123.538 41.248C123.305 42.377 122.84 43.6553 122.143 45.083C121.446 46.5107 120.732 47.9883 120.001 49.5156C118.175 53.4668 117.262 56.2891 117.262 57.9824C117.262 61.4688 118.375 63.2119 120.599 63.2119C123.056 63.2119 125.795 62.0996 128.817 59.875C131.506 57.8496 133.864 55.3262 135.889 52.3047C137.383 52.2051 138.13 52.8193 138.13 54.1475C138.13 55.21 137.433 56.9365 136.039 59.3271C134.677 61.6846 133.333 63.7266 132.004 65.4531C130.676 67.1797 129.182 68.8896 127.522 70.583C125.862 72.2432 124.085 73.7207 122.193 75.0156C117.943 77.9707 113.859 79.4482 109.941 79.4482C106.023 79.4482 103.234 78.4521 101.574 76.46C99.9468 74.4346 99.1333 71.5459 99.1333 67.7939C99.1333 62.9795 102.039 56.9531 107.849 49.7148C109.642 47.4902 110.422 46.3779 110.19 46.3779C107.534 46.3779 103.5 48.0381 98.0874 51.3584C92.3433 54.8779 88.2925 58.3311 85.9351 61.7178C84.5738 67.0635 83.7603 72.1602 83.4947 77.0078C83.4947 78.3359 82.0503 79 79.1616 79ZM96.145 35.0225C100.428 33.0635 104.114 30.7227 107.202 28C110.29 25.2109 111.834 22.8037 111.834 20.7783C111.834 19.7822 111.634 18.8691 111.236 18.0391C110.871 17.1758 110.373 16.7441 109.742 16.7441C109.144 16.7441 108.364 17.1924 107.401 18.0889C106.438 18.9854 105.359 20.2305 104.164 21.8242C101.64 25.1445 98.9673 29.5439 96.145 35.0225ZM157.929 71.0312C153.38 76.3438 147.835 79 141.294 79C137.144 79 133.823 77.7549 131.333 75.2646C128.876 72.8076 127.647 69.5703 127.647 65.5527C127.647 60.4727 129.64 55.542 133.624 50.7607C137.476 46.1123 142.522 42.3271 148.765 39.4053C155.239 36.3838 161.93 34.873 168.836 34.873C171.459 34.873 173.335 35.2881 174.464 36.1182C175.36 35.0557 176.157 34.4414 176.855 34.2754C177.585 34.0762 178.149 33.9766 178.548 33.9766C179.81 33.9766 181.154 34.1592 182.582 34.5244C182.449 34.9561 182.167 35.7031 181.735 36.7656C181.304 37.7949 180.822 39.0234 180.291 40.4512C179.76 41.8789 179.195 43.4395 178.598 45.1328C176.439 51.1758 175.36 55.708 175.36 58.7295C175.36 61.7178 176.307 63.2119 178.199 63.2119C180.656 63.2119 183.396 62.0996 186.417 59.875C189.106 57.8496 191.464 55.3262 193.489 52.3047C194.983 52.2051 195.731 52.8193 195.731 54.1475C195.731 55.2764 195.033 57.0029 193.639 59.3271C192.277 61.6514 190.949 63.6602 189.654 65.3535C188.359 67.0469 186.915 68.707 185.321 70.334C183.728 71.9609 182.034 73.4219 180.241 74.7168C176.224 77.5723 172.306 79 168.487 79C163.64 79 160.386 77.5391 158.726 74.6172C158.194 73.7207 157.929 72.9404 157.929 72.2764C157.929 71.5791 157.929 71.1641 157.929 71.0312ZM143.685 57.4346C143.685 61.2861 145.295 63.2119 148.516 63.2119C152.068 63.2119 156.252 60.3398 161.066 54.5957C163.623 51.541 165.848 48.6191 167.74 45.8301C169.666 43.041 171.127 40.916 172.123 39.4551C163.822 39.5215 156.933 41.4141 151.454 45.1328C146.274 48.6523 143.685 52.7529 143.685 57.4346ZM203.128 79.0498C192.536 79.0498 187.24 74.5508 187.24 65.5527C187.24 59.2773 191.407 50.5781 199.741 39.4551C198.911 39.1895 198.147 38.957 197.45 38.7578C196.753 38.5586 196.188 38.3926 195.756 38.2598C195.325 38.0938 195.059 37.8447 194.96 37.5127C194.86 37.1807 194.827 36.7988 194.86 36.3672C194.993 35.3711 195.225 34.5742 195.557 33.9766L203.078 35.2217C208.955 28.083 214.018 23.1855 218.268 20.5293C219.563 19.7324 220.476 19.334 221.007 19.334C221.539 19.334 222.003 19.417 222.402 19.583C222.834 19.7158 223.265 19.8984 223.697 20.1309C224.627 20.6289 225.357 21.21 225.888 21.874C221.406 26.2568 217.206 31.2871 213.288 36.9648C220.891 38.293 225.54 39.0068 227.233 39.1064C226.336 42.6592 225.307 44.4355 224.145 44.4355C221.29 44.4355 216.591 43.6553 210.05 42.0947C206.763 47.5732 205.12 52.1221 205.12 55.7412C205.12 60.7217 208.473 63.2119 215.18 63.2119C222.684 63.2119 228.86 59.5762 233.708 52.3047C235.202 52.2051 235.949 52.8193 235.949 54.1475C235.949 55.3096 235.252 57.0527 233.857 59.377C232.462 61.668 231.068 63.6602 229.673 65.3535C228.279 67.0469 226.669 68.7236 224.842 70.3838C223.016 72.0107 220.991 73.4717 218.766 74.7666C213.919 77.6221 208.706 79.0498 203.128 79.0498ZM243.346 79.0498C232.754 79.0498 227.458 74.5508 227.458 65.5527C227.458 59.2773 231.625 50.5781 239.959 39.4551C239.129 39.1895 238.365 38.957 237.668 38.7578C236.971 38.5586 236.406 38.3926 235.975 38.2598C235.543 38.0938 235.277 37.8447 235.178 37.5127C235.078 37.1807 235.045 36.7988 235.078 36.3672C235.211 35.3711 235.443 34.5742 235.775 33.9766L243.296 35.2217C249.173 28.083 254.236 23.1855 258.486 20.5293C259.781 19.7324 260.694 19.334 261.226 19.334C261.757 19.334 262.222 19.417 262.62 19.583C263.052 19.7158 263.483 19.8984 263.915 20.1309C264.845 20.6289 265.575 21.21 266.107 21.874C261.624 26.2568 257.424 31.2871 253.506 36.9648C261.109 38.293 265.758 39.0068 267.451 39.1064C266.555 42.6592 265.525 44.4355 264.363 44.4355C261.508 44.4355 256.81 43.6553 250.269 42.0947C246.982 47.5732 245.338 52.1221 245.338 55.7412C245.338 60.7217 248.691 63.2119 255.399 63.2119C262.902 63.2119 269.078 59.5762 273.926 52.3047C275.42 52.2051 276.167 52.8193 276.167 54.1475C276.167 55.3096 275.47 57.0527 274.075 59.377C272.681 61.668 271.286 63.6602 269.892 65.3535C268.497 67.0469 266.887 68.7236 265.061 70.3838C263.234 72.0107 261.209 73.4717 258.984 74.7666C254.137 77.6221 248.924 79.0498 243.346 79.0498ZM296.613 69.4873C290.769 74.9658 285.257 77.7051 280.078 77.7051C276.691 77.7051 273.852 76.6758 271.561 74.6172C269.104 72.4258 267.876 69.3213 267.876 65.3037C267.876 60.6885 269.486 55.8408 272.707 50.7607C275.429 46.4775 278.75 42.709 282.668 39.4551C286.32 36.4336 289.059 34.9229 290.885 34.9229C292.047 34.9229 292.994 35.4209 293.724 36.417C291.5 38.1104 289.541 40.3184 287.847 43.041C284.66 48.2207 283.066 52.1221 283.066 54.7451C283.066 60.2236 284.56 62.9629 287.548 62.9629C290.636 62.9629 294.305 60.8047 298.555 56.4883C302.905 52.0723 305.926 47.1582 307.62 41.7461C307.885 39.9531 308.101 37.9111 308.267 35.6201C311.056 34.5908 313.032 34.7734 314.194 36.168C314.626 36.6992 314.841 37.5791 314.841 38.8076C314.841 40.0029 314.692 41.5635 314.393 43.4893C314.128 45.415 313.679 47.5898 313.048 50.0137C311.787 55.1602 309.994 60.5391 307.67 66.1504C312.418 64.8555 317.182 61.7676 321.963 56.8867C323.424 55.3926 324.67 53.8652 325.699 52.3047C327.193 52.2051 327.94 52.8193 327.94 54.1475C327.94 54.6787 327.542 55.9072 326.745 57.833C325.948 59.7256 324.636 61.9336 322.81 64.457C321.017 66.9473 319.025 69.1387 316.834 71.0312C312.351 74.8828 307.387 77.3398 301.942 78.4023C295.534 90.1562 288.843 97.8926 281.871 101.611C279.347 102.973 276.94 103.653 274.649 103.653C272.358 103.653 270.233 103.321 268.274 102.657C266.315 101.993 264.555 101.08 262.995 99.918C259.475 97.2285 257.715 94.0244 257.715 90.3057C257.715 88.8779 258.197 87.4004 259.16 85.873C260.953 83.0176 262.879 81.1914 264.937 80.3945C268.789 82.9844 272.076 84.5947 274.798 85.2256C275.994 85.4912 277.255 85.624 278.584 85.624C279.912 85.624 281.306 85.2256 282.767 84.4287C284.261 83.6318 285.789 82.5195 287.349 81.0918C290.603 78.0703 293.691 74.2021 296.613 69.4873Z" fill="#27832A"/>
</g>
<defs>
<filter id="filter0_dd_1_3" x="0.229492" y="0.707031" width="332.711" height="110.946" filterUnits="userSpaceOnUse" color-interpolation-filters="sRGB">
<feFlood flood-opacity="0" result="BackgroundImageFix"/>
<feColorMatrix in="SourceAlpha" type="matrix" values="0 0 0 0 0 0 0 0 0 0 0 0 0 0 0 0 0 0 127 0" result="hardAlpha"/>
<feOffset dx="5" dy="2"/>
<feComposite in2="hardAlpha" operator="out"/>
<feColorMatrix type="matrix" values="0 0 0 0 0.8875 0 0 0 0 0.69225 0 0 0 0 0 0 0 0 1 0"/>
<feBlend mode="normal" in2="BackgroundImageFix" result="effect1_dropShadow_1_3"/>
<feColorMatrix in="SourceAlpha" type="matrix" values="0 0 0 0 0 0 0 0 0 0 0 0 0 0 0 0 0 0 127 0" result="hardAlpha"/>
<feOffset dy="4"/>
<feGaussianBlur stdDeviation="2"/>
<feComposite in2="hardAlpha" operator="out"/>
<feColorMatrix type="matrix" values="0 0 0 0 0 0 0 0 0 0 0 0 0 0 0 0 0 0 0.25 0"/>
<feBlend mode="normal" in2="effect1_dropShadow_1_3" result="effect2_dropShadow_1_3"/>
<feBlend mode="normal" in="SourceGraphic" in2="effect2_dropShadow_1_3" result="shape"/>
</filter>
</defs>
</svg>
